# xmcd CD database file
#
# Track frame offsets:
#	182
#	13432
#	25607
#	37180
#	49350
#	61157
#	74742
#	86830
#	97895
#	110857
#	123072
#	134570
#	146540
#	161427
#	173587
#	186557
#	198825
#	214597
#	229970
#	242787
#	255122
#	268572
#
# Disc length: 3746 seconds
#
# Revision: 0
# Processed by: cddbd v1.5.2PL0 Copyright (c) Steve Scherf et al.
# Submitted via: CDex 1.51
#
DISCID=420ea016
DTITLE=Duke Ellington - 1939 Vol 1
DYEAR=1994
DGENRE=Jazz
TTITLE0=Lady in Blue
TTITLE1=Smorgasbord and Schnapps
TTITLE2=Savoy Strut
TTITLE3=Rent Party Blues
TTITLE4=Dance of the Goon
TTITLE5=Good Gal Blues
TTITLE6=Finesse (Night Wind)
TTITLE7=Portrait of the Lion
TTITLE8=(I Want) Something to Live For
TTITLE9=Solid Old Man
TTITLE10=Kitchen Mechanic's Day
TTITLE11=My Heart Jumped Over the Moon
TTITLE12=You Can Count on Me
TTITLE13=Home Town Blues
TTITLE14=Cotton Club Stomp
TTITLE15=Doin' the Voom Voom
TTITLE16=Way Low
TTITLE17=Serenade to Sweden
TTITLE18=Utt-Da-Zay (The Tailor Song)
TTITLE19=Chew Chew Chew (Chew Your Bubble Gum)
TTITLE20=Barney Goin' Easy
TTITLE21=Just Another Dream
EXTD=YEAR: 1994
EXTT0=
EXTT1=
EXTT2=
EXTT3=
EXTT4=
EXTT5=
EXTT6=
EXTT7=
EXTT8=
EXTT9=
EXTT10=
EXTT11=
EXTT12=
EXTT13=
EXTT14=
EXTT15=
EXTT16=
EXTT17=
EXTT18=
EXTT19=
EXTT20=
EXTT21=
PLAYORDER=
